<?xml version="1.0" encoding="utf-8"?>
<!-- Generator: Adobe Illustrator 19.2.1, SVG Export Plug-In . SVG Version: 6.00 Build 0)  -->
<svg version="1.1" id="Capa_1" xmlns="http://www.w3.org/2000/svg" xmlns:xlink="http://www.w3.org/1999/xlink" x="0px" y="0px"
	 viewBox="0 0 403.4 212.6" style="enable-background:new 0 0 403.4 212.6;" xml:space="preserve">
<style type="text/css">
	.st0{fill:#FFFFFF;}
	.st1{fill:#B0B1B2;}
	.st2{fill:none;stroke:#B0B1B2;stroke-width:0.66;stroke-miterlimit:10;}
	.st3{fill:none;stroke:#B0B1B2;stroke-width:0.69;stroke-miterlimit:10;}
</style>
<title>fondo</title>
<path class="st0" d="M22.5,0.8h7.7l8,23.5l8.3-23.5h7.4L41.5,34h-6.5L22.5,0.8z"/>
<path class="st0" d="M56.4,0.8h6.9V34h-6.9V0.8z"/>
<path class="st0" d="M97.1,22.5c-0.1,1.7-0.6,3.3-1.2,4.9c-0.6,1.5-1.6,2.8-2.7,3.9c-1.2,1.1-2.7,2-4.3,2.6c-1.9,0.7-3.9,1-5.9,0.9
	c-2.3,0-4.5-0.4-6.6-1.2c-1.8-0.8-3.5-2-4.8-3.5c-1.3-1.6-2.3-3.5-2.9-5.5c-0.7-2.3-1-4.7-1-7.1c0-2.5,0.3-4.9,1.1-7.2
	c0.6-2,1.7-3.9,3.1-5.5c1.3-1.5,3-2.7,4.8-3.5C78.7,0.4,80.8,0,83,0c1.9,0,3.7,0.2,5.5,0.8c1.5,0.5,2.8,1.2,4,2.3
	c1.1,1,2,2.2,2.6,3.6c0.7,1.5,1.2,3.1,1.4,4.7l-6.9,0.9c-0.2-1.7-0.9-3.3-2-4.6c-1.2-1.2-2.9-1.8-4.6-1.7c-2.4-0.1-4.7,1-6.1,3
	c-1.4,2-2.1,4.8-2.1,8.5s0.7,6.5,2.2,8.5c1.3,1.9,3.6,3.1,5.9,3c1.8,0.2,3.5-0.4,4.8-1.6c1.1-1.3,1.8-3,1.9-4.7L97.1,22.5L97.1,22.5
	z"/>
<path class="st1" d="M180.8,105.8h1.1v8.7h-1.1V105.8z"/>
<path class="st1" d="M183.9,105.8h3c0.6,0,1.2,0.1,1.7,0.3c0.5,0.2,0.9,0.4,1.3,0.8c0.4,0.4,0.6,0.8,0.8,1.3
	c0.2,0.6,0.3,1.2,0.3,1.9c0,0.7-0.1,1.3-0.3,1.9c-0.3,1.1-1.2,1.9-2.2,2.3c-0.6,0.2-1.2,0.3-1.8,0.3h-2.8L183.9,105.8L183.9,105.8z
	 M186.7,113.6c0.9,0.1,1.8-0.3,2.4-0.9c0.5-0.7,0.8-1.6,0.8-2.5c0-0.5-0.1-1-0.2-1.4c-0.1-0.4-0.3-0.7-0.5-1.1
	c-0.2-0.3-0.5-0.5-0.9-0.7c-0.4-0.2-0.9-0.2-1.3-0.2H185v6.8L186.7,113.6L186.7,113.6z"/>
<path class="st1" d="M192.4,108.2h1.2v1.4h-1.2V108.2z M192.4,113.1h1.2v1.4h-1.2V113.1z"/>
<path class="st1" d="M200.8,107.3l-2,1.2l-0.5-0.8l2.5-1.6h1v8.4h-1.1V107.3z"/>
<path class="st1" d="M206.2,112.4c0,0.8,0.7,1.5,1.6,1.5c0.1,0,0.1,0,0.2,0c0.5,0,0.9-0.2,1.3-0.5c0.6-0.8,0.6-2,0.1-2.8
	c-0.3-0.4-0.8-0.6-1.3-0.5c-0.3,0-0.7,0.1-1,0.2c-0.3,0.1-0.5,0.3-0.8,0.5h-0.9l0.4-4.6h4.6v1h-3.7l-0.2,2.6
	c0.2-0.2,0.5-0.3,0.8-0.4c0.3-0.1,0.7-0.1,1-0.1c0.4,0,0.8,0.1,1.2,0.2c0.3,0.1,0.6,0.3,0.8,0.6c0.2,0.3,0.4,0.6,0.5,0.9
	c0.1,0.3,0.1,0.7,0.2,1c0.1,0.8-0.2,1.6-0.8,2.2c-0.5,0.5-1.3,0.8-2,0.8c-0.7,0-1.4-0.2-2-0.6c-0.5-0.5-0.8-1.1-0.8-1.8L206.2,112.4
	L206.2,112.4z"/>
<path class="st1" d="M215.2,114.8c-0.9,0-1.7-0.4-2.3-1.1c-0.6-1-0.9-2.2-0.8-3.4c0-0.7,0.1-1.3,0.2-2c0.1-0.5,0.3-1,0.6-1.4
	c0.3-0.4,0.6-0.6,1-0.8c0.4-0.2,0.8-0.3,1.3-0.3c0.4,0,0.9,0.1,1.3,0.3c0.4,0.2,0.7,0.5,1,0.8c0.3,0.4,0.5,0.9,0.6,1.4
	c0.3,1.3,0.3,2.7,0,4c-0.1,0.5-0.3,1-0.6,1.4c-0.3,0.4-0.6,0.6-1,0.8C216.1,114.7,215.6,114.8,215.2,114.8z M215.2,113.8
	c0.3,0,0.6-0.1,0.9-0.2c0.3-0.2,0.5-0.4,0.6-0.7c0.2-0.3,0.3-0.7,0.3-1.1c0.1-1,0.1-2,0-2.9c-0.1-0.4-0.2-0.8-0.3-1.1
	c-0.5-0.9-1.6-1.2-2.4-0.7c0,0,0,0,0,0c-0.3,0.2-0.5,0.4-0.6,0.7c-0.2,0.3-0.3,0.7-0.3,1.1c-0.1,1-0.1,2,0,2.9
	c0.1,0.4,0.2,0.7,0.3,1.1c0.1,0.3,0.3,0.5,0.6,0.7C214.5,113.7,214.9,113.8,215.2,113.8L215.2,113.8z"/>
<path class="st1" d="M220.9,114.5c0.4-1.3,0.8-2.6,1.3-3.8c0.5-1.2,1.1-2.5,1.7-3.6h-4.6v-1h5.8v0.9c-0.6,1.2-1.2,2.4-1.7,3.7
	c-0.5,1.3-0.9,2.6-1.3,3.9L220.9,114.5L220.9,114.5z"/>
<path class="st1" d="M160.9,134.3h5.7v1h-4.5v2.7h4.3v1h-4.3v3h4.7l-0.2,1h-5.7L160.9,134.3L160.9,134.3z"/>
<path class="st1" d="M168.9,141.2c0,0.4,0.2,0.7,0.6,0.9c0.4,0.2,0.8,0.3,1.2,0.3c0.4,0,0.8-0.1,1.1-0.3c0.2-0.2,0.3-0.4,0.3-0.7
	c0-0.1,0-0.2,0-0.4c0-0.1-0.1-0.2-0.2-0.3c-0.1-0.1-0.2-0.2-0.3-0.2c-0.2-0.1-0.4-0.1-0.6-0.2l-0.8-0.1c-0.3,0-0.6-0.1-0.9-0.2
	c-0.2-0.1-0.5-0.2-0.7-0.4c-0.2-0.1-0.3-0.3-0.4-0.5c-0.1-0.2-0.1-0.5-0.1-0.8c0-0.3,0.1-0.5,0.2-0.8c0.1-0.2,0.3-0.4,0.5-0.6
	c0.2-0.2,0.5-0.3,0.8-0.4c0.3-0.1,0.7-0.1,1-0.1c0.4,0,0.8,0,1.1,0.1c0.3,0.1,0.5,0.2,0.8,0.4c0.2,0.1,0.3,0.3,0.5,0.5
	c0.1,0.2,0.2,0.4,0.2,0.7l-1,0.2c-0.1-0.2-0.1-0.3-0.2-0.5c-0.1-0.1-0.2-0.2-0.3-0.3c-0.1-0.1-0.3-0.2-0.5-0.2
	c-0.2,0-0.4-0.1-0.7-0.1c-0.2,0-0.5,0-0.7,0.1c-0.2,0-0.3,0.1-0.5,0.2c-0.1,0.1-0.2,0.2-0.2,0.3c0,0.1-0.1,0.2-0.1,0.4
	c0,0.1,0,0.2,0,0.4c0,0.1,0.1,0.2,0.2,0.3c0.1,0.1,0.2,0.2,0.4,0.2c0.2,0.1,0.4,0.1,0.6,0.1l0.9,0.1c0.6,0.1,1.1,0.3,1.6,0.6
	c0.5,0.6,0.6,1.4,0.3,2.1c-0.1,0.2-0.3,0.4-0.5,0.6c-0.2,0.2-0.5,0.3-0.8,0.4c-0.4,0.1-0.7,0.1-1.1,0.1c-0.4,0-0.7,0-1.1-0.1
	c-0.3-0.1-0.6-0.2-0.9-0.4c-0.3-0.2-0.5-0.4-0.6-0.6c-0.2-0.3-0.3-0.6-0.3-1L168.9,141.2L168.9,141.2z"/>
<path class="st1" d="M179.8,140.9c-0.1,0.6-0.4,1.3-0.8,1.7c-0.5,0.4-1.2,0.7-1.9,0.6c-0.4,0-0.9-0.1-1.3-0.2
	c-0.4-0.1-0.7-0.4-0.9-0.7c-0.3-0.3-0.4-0.7-0.6-1c-0.1-0.5-0.2-0.9-0.2-1.4c0-0.5,0.1-0.9,0.2-1.4c0.1-0.4,0.3-0.8,0.6-1.1
	c0.3-0.3,0.6-0.5,1-0.7c0.4-0.2,0.8-0.2,1.3-0.2c1.3-0.1,2.4,0.8,2.5,2.1c0,0,0,0,0,0l-1.1,0.2c0-0.2-0.1-0.4-0.2-0.6
	c-0.1-0.2-0.2-0.3-0.3-0.5c-0.1-0.1-0.3-0.2-0.5-0.3c-0.2-0.1-0.4-0.1-0.6-0.1c-0.3,0-0.6,0.1-0.9,0.2c-0.2,0.1-0.4,0.3-0.6,0.5
	c-0.2,0.2-0.3,0.5-0.3,0.8c-0.1,0.3-0.1,0.7-0.1,1c0,0.3,0,0.7,0.1,1c0.1,0.3,0.2,0.5,0.3,0.8c0.1,0.2,0.3,0.4,0.6,0.5
	c0.3,0.1,0.6,0.2,0.9,0.2c0.4,0,0.8-0.1,1.1-0.4c0.3-0.3,0.4-0.7,0.5-1.1L179.8,140.9L179.8,140.9z"/>
<path class="st1" d="M185,142.2c-0.2,0.3-0.5,0.5-0.9,0.7c-0.4,0.2-0.9,0.3-1.3,0.3c-0.3,0-0.6,0-0.9-0.1c-0.2-0.1-0.5-0.2-0.7-0.4
	c-0.2-0.2-0.3-0.4-0.5-0.6c-0.1-0.3-0.2-0.5-0.2-0.8c0-0.4,0.1-0.7,0.3-1c0.2-0.3,0.4-0.5,0.7-0.6c0.3-0.2,0.7-0.3,1-0.3
	c0.4-0.1,0.8-0.1,1.2-0.1h1.1v-0.2c0-0.4-0.1-0.8-0.3-1.2c-0.3-0.3-0.7-0.4-1.1-0.4c-0.4,0-0.8,0.1-1.1,0.2
	c-0.2,0.2-0.4,0.4-0.5,0.7l-1-0.1c0.1-0.5,0.4-1,0.8-1.3c0.5-0.3,1.1-0.4,1.8-0.4c0.4,0,0.8,0,1.2,0.2c0.3,0.1,0.5,0.3,0.8,0.5
	c0.2,0.2,0.3,0.5,0.4,0.8c0.1,0.3,0.1,0.7,0.1,1v4.1h-1L185,142.2L185,142.2z M185,139.9h-1c-0.4,0-0.7,0-1.1,0.1
	c-0.2,0-0.5,0.1-0.7,0.3c-0.2,0.1-0.3,0.2-0.3,0.4c-0.1,0.2-0.1,0.4-0.1,0.6c0,0.3,0.1,0.6,0.3,0.8c0.3,0.2,0.6,0.3,1,0.3
	c0.5,0,1.1-0.1,1.5-0.5c0.4-0.3,0.6-0.8,0.5-1.3L185,139.9L185,139.9z"/>
<path class="st1" d="M187.7,134.3h1.1v8.7h-1.1L187.7,134.3L187.7,134.3z"/>
<path class="st1" d="M194.3,142.2c-0.2,0.3-0.5,0.5-0.9,0.7c-0.4,0.2-0.9,0.3-1.3,0.3c-0.3,0-0.6,0-0.9-0.1
	c-0.2-0.1-0.5-0.2-0.7-0.4c-0.2-0.2-0.3-0.4-0.5-0.6c-0.1-0.3-0.2-0.5-0.2-0.8c0-0.4,0.1-0.7,0.3-1c0.2-0.3,0.4-0.5,0.7-0.6
	c0.3-0.2,0.7-0.3,1-0.3c0.4-0.1,0.8-0.1,1.2-0.1h1.1v-0.2c0-0.4-0.1-0.8-0.3-1.2c-0.3-0.3-0.7-0.4-1.1-0.4c-0.4,0-0.8,0.1-1.1,0.2
	c-0.2,0.2-0.4,0.4-0.5,0.7l-1-0.1c0.1-0.5,0.4-1,0.8-1.3c0.5-0.3,1.1-0.4,1.8-0.4c0.4,0,0.8,0,1.2,0.2c0.3,0.1,0.5,0.3,0.8,0.5
	c0.2,0.2,0.3,0.5,0.4,0.8c0.1,0.3,0.1,0.7,0.1,1v4.1h-1L194.3,142.2L194.3,142.2z M194.3,139.9h-1c-0.4,0-0.7,0-1.1,0.1
	c-0.2,0-0.5,0.1-0.7,0.3c-0.2,0.1-0.3,0.2-0.3,0.4c-0.1,0.2-0.1,0.4-0.1,0.6c0,0.3,0.1,0.6,0.3,0.8c0.3,0.2,0.6,0.3,1,0.3
	c0.5,0,1.1-0.1,1.5-0.5c0.4-0.3,0.6-0.8,0.5-1.3L194.3,139.9L194.3,139.9z"/>
<path class="st1" d="M196.9,136.7h1.2v1.4h-1.2V136.7z M196.9,141.6h1.2v1.4h-1.2V141.6z"/>
<path class="st1" d="M205.2,135.8l-1.9,1.2l-0.5-0.8l2.5-1.6h1v8.4h-1.1L205.2,135.8L205.2,135.8z"/>
<path class="st1" d="M209.6,141.6h1.2v1.4h-1.2L209.6,141.6L209.6,141.6z"/>
<path class="st1" d="M213.4,140.9c0,0.8,0.7,1.5,1.6,1.5c0.1,0,0.1,0,0.2,0c0.5,0,0.9-0.2,1.3-0.5c0.6-0.8,0.6-2,0.1-2.8
	c-0.3-0.4-0.8-0.6-1.3-0.5c-0.3,0-0.7,0.1-1,0.2c-0.3,0.1-0.5,0.3-0.8,0.5h-0.9l0.4-4.6h4.6v1h-3.7l-0.2,2.6
	c0.2-0.2,0.5-0.3,0.8-0.4c0.3-0.1,0.7-0.1,1-0.1c0.4,0,0.8,0.1,1.2,0.2c0.3,0.1,0.6,0.3,0.8,0.6c0.2,0.3,0.4,0.6,0.5,0.9
	c0.1,0.3,0.1,0.7,0.2,1c0.1,0.8-0.2,1.6-0.8,2.2c-0.5,0.5-1.3,0.8-2,0.8c-0.7,0-1.4-0.2-2-0.6c-0.5-0.5-0.8-1.1-0.8-1.8L213.4,140.9
	L213.4,140.9z"/>
<path class="st1" d="M222.4,143.3c-0.9,0-1.7-0.4-2.3-1.1c-0.6-1-0.9-2.2-0.8-3.4c0-0.7,0.1-1.3,0.2-2c0.1-0.5,0.3-1,0.6-1.4
	c0.3-0.4,0.6-0.6,1-0.8c0.4-0.2,0.8-0.3,1.3-0.3c0.4,0,0.9,0.1,1.3,0.3c0.4,0.2,0.7,0.5,1,0.8c0.3,0.4,0.5,0.9,0.6,1.4
	c0.3,1.3,0.3,2.7,0,4c-0.1,0.5-0.3,1-0.6,1.4c-0.3,0.4-0.6,0.6-1,0.8C223.3,143.2,222.9,143.3,222.4,143.3z M222.4,142.3
	c0.3,0,0.6-0.1,0.9-0.2c0.3-0.2,0.5-0.4,0.6-0.7c0.2-0.3,0.3-0.7,0.3-1.1c0.1-1,0.1-2,0-2.9c-0.1-0.4-0.2-0.8-0.3-1.1
	c-0.5-0.9-1.6-1.2-2.4-0.7c0,0,0,0,0,0c-0.3,0.2-0.5,0.4-0.6,0.7c-0.2,0.3-0.3,0.7-0.3,1.1c-0.1,1-0.1,2,0,2.9
	c0.1,0.4,0.2,0.7,0.3,1.1c0.1,0.3,0.3,0.5,0.6,0.7C221.8,142.2,222.1,142.3,222.4,142.3L222.4,142.3z"/>
<path class="st1" d="M255.8,117.3h2.3l4.3,11.4h-2.6l-0.9-2.6h-4l-0.9,2.6h-2.5L255.8,117.3z M258.3,124.1l-1.4-4.1l-1.4,4.1H258.3z
	"/>
<path class="st1" d="M263.5,120.4h2.2v1.1c1.1-1.5,3.2-1.8,4.6-0.7c0.2,0.2,0.4,0.3,0.6,0.5c0.6,1,0.9,2.1,0.9,3.2
	c0,0.6-0.1,1.2-0.2,1.8c-0.1,0.5-0.4,1-0.7,1.4c-0.3,0.4-0.7,0.7-1.1,0.9c-0.5,0.2-1,0.3-1.5,0.3c-0.4,0-0.8-0.1-1.2-0.2
	c-0.5-0.2-0.9-0.5-1.2-0.9v4h-2.2L263.5,120.4L263.5,120.4z M265.8,124.7c0,0.4,0,0.9,0.1,1.3c0.1,0.3,0.2,0.6,0.4,0.8
	c0.2,0.2,0.4,0.3,0.7,0.4c0.2,0.1,0.4,0.1,0.7,0.1c0.2,0,0.5,0,0.7-0.1c0.2-0.1,0.4-0.3,0.6-0.5c0.2-0.2,0.3-0.5,0.4-0.8
	c0.1-0.4,0.2-0.8,0.1-1.2c0-0.4,0-0.8-0.1-1.2c-0.1-0.3-0.2-0.6-0.4-0.8c-0.1-0.2-0.3-0.4-0.6-0.5c-0.2-0.1-0.5-0.1-0.7-0.1
	c-0.2,0-0.5,0-0.7,0.1c-0.2,0.1-0.4,0.2-0.6,0.4c-0.2,0.2-0.4,0.5-0.5,0.8c-0.1,0.4-0.2,0.8-0.2,1.2L265.8,124.7L265.8,124.7z"/>
<path class="st1" d="M273.4,122.9h4.8v2.2h-4.8V122.9z"/>
<path class="st1" d="M283.3,120.3l-2.2,1.3l-1-1.6l3.5-2.2h1.9v11h-2.3L283.3,120.3L283.3,120.3z"/>
<line class="st2" x1="0.1" y1="124.9" x2="234.7" y2="124.9"/>
<rect x="0.3" y="95.3" class="st3" width="303.4" height="59.2"/>
<line class="st2" x1="234.8" y1="95.3" x2="234.8" y2="154.2"/>
<line class="st3" x1="168.7" y1="95.5" x2="168.7" y2="125"/>
<line class="st3" x1="149.2" y1="125" x2="149.2" y2="154.5"/>
<g>
	<path class="st0" d="M234,2.6h2.7l2.8,8.3l2.9-8.3h2.6l-4.4,11.7h-2.3L234,2.6z"/>
	<path class="st0" d="M246.6,2.6h2.4v11.7h-2.4V2.6z"/>
	<path class="st0" d="M261.7,10.2c-0.1,0.6-0.2,1.2-0.4,1.7c-0.2,0.5-0.6,1-1,1.4c-0.4,0.4-0.9,0.7-1.5,0.9
		c-0.6,0.2-1.3,0.3-2.1,0.3c-0.9,0-1.7-0.1-2.3-0.4c-0.7-0.3-1.2-0.7-1.7-1.2c-0.5-0.5-0.8-1.2-1-1.9c-0.2-0.8-0.3-1.6-0.3-2.5
		c0-1,0.1-1.8,0.4-2.6c0.3-0.8,0.6-1.4,1.1-1.9c0.5-0.5,1-0.9,1.7-1.2c0.7-0.3,1.4-0.4,2.3-0.4c0.7,0,1.4,0.1,1.9,0.3
		c0.6,0.2,1,0.5,1.4,0.8c0.4,0.4,0.7,0.8,0.9,1.3c0.2,0.5,0.4,1,0.5,1.7L259,6.6c-0.1-0.7-0.4-1.2-0.7-1.6c-0.3-0.4-0.9-0.6-1.6-0.6
		c-0.9,0-1.7,0.4-2.1,1.1c-0.5,0.7-0.7,1.7-0.7,3c0,1.3,0.3,2.3,0.8,3c0.5,0.7,1.2,1.1,2.1,1.1c0.8,0,1.3-0.2,1.7-0.6
		c0.4-0.4,0.6-0.9,0.7-1.7H261.7z"/>
	<path class="st0" d="M265.7,4.7h-3.5V2.6h9.5v2.1h-3.5v9.6h-2.5V4.7z"/>
	<path class="st0" d="M278.1,14.6c-0.9,0-1.7-0.1-2.3-0.4c-0.7-0.3-1.3-0.7-1.8-1.2c-0.5-0.5-0.9-1.2-1.1-1.9
		c-0.3-0.8-0.4-1.6-0.4-2.6c0-1,0.1-1.8,0.4-2.6c0.3-0.8,0.6-1.4,1.1-1.9c0.5-0.5,1.1-0.9,1.8-1.2c0.7-0.3,1.5-0.4,2.3-0.4
		c0.9,0,1.7,0.1,2.3,0.4c0.7,0.3,1.3,0.7,1.7,1.2s0.8,1.2,1.1,1.9c0.3,0.8,0.4,1.6,0.4,2.6c0,1-0.1,1.8-0.4,2.6
		c-0.2,0.8-0.6,1.4-1.1,1.9c-0.5,0.5-1.1,0.9-1.7,1.2C279.8,14.4,279,14.6,278.1,14.6z M278.1,12.5c1,0,1.8-0.3,2.3-1.1
		c0.5-0.7,0.8-1.7,0.8-3c0-1.3-0.3-2.3-0.8-3c-0.5-0.7-1.3-1.1-2.3-1.1c-1,0-1.8,0.4-2.3,1.1c-0.5,0.7-0.8,1.7-0.8,3
		c0,1.3,0.3,2.3,0.8,3C276.3,12.1,277,12.5,278.1,12.5z"/>
	<path class="st0" d="M285.8,2.6h4.2c0.9,0,1.7,0.1,2.3,0.3c0.6,0.2,1.1,0.5,1.4,0.8c0.3,0.3,0.6,0.7,0.7,1.1
		c0.1,0.4,0.2,0.8,0.2,1.2c0,0.8-0.1,1.4-0.4,1.9c-0.3,0.5-0.7,0.9-1.4,1.3l2.4,5h-2.6l-2-4.4h-2.3v4.4h-2.4V2.6z M290.1,7.9
		c0.4,0,0.7,0,1-0.1c0.3-0.1,0.5-0.2,0.6-0.3c0.1-0.1,0.2-0.3,0.3-0.5c0.1-0.2,0.1-0.4,0.1-0.7c0-0.2,0-0.4-0.1-0.6
		s-0.2-0.4-0.3-0.5c-0.2-0.1-0.4-0.3-0.7-0.3c-0.3-0.1-0.6-0.1-1.1-0.1h-1.7v3.3H290.1z"/>
	<path class="st0" d="M296.7,2.6h2.4v11.7h-2.4V2.6z"/>
	<path class="st0" d="M305.1,2.6h2.3l4.4,11.7h-2.6l-0.9-2.7h-4.1l-0.9,2.7h-2.5L305.1,2.6z M307.6,9.6l-1.4-4.2l-1.4,4.2H307.6z"/>
	<path class="st0" d="M318.9,10.5c0.1,0.7,0.3,1.2,0.7,1.6c0.4,0.3,1,0.5,1.8,0.5c0.4,0,0.7,0,1-0.1c0.3-0.1,0.5-0.2,0.6-0.3
		c0.2-0.1,0.3-0.3,0.4-0.5c0.1-0.2,0.1-0.4,0.1-0.6c0-0.3-0.1-0.6-0.3-0.9c-0.2-0.3-0.7-0.5-1.3-0.6l-1.5-0.3
		c-0.6-0.1-1.1-0.3-1.6-0.4c-0.5-0.2-0.8-0.4-1.2-0.7c-0.3-0.3-0.5-0.6-0.7-1c-0.2-0.4-0.2-0.9-0.2-1.4c0-0.6,0.1-1.1,0.3-1.5
		s0.5-0.8,0.9-1.1c0.4-0.3,0.9-0.5,1.4-0.6c0.6-0.1,1.2-0.2,1.8-0.2c0.9,0,1.6,0.1,2.1,0.3c0.6,0.2,1,0.5,1.4,0.8
		c0.3,0.3,0.6,0.7,0.8,1.1s0.3,0.9,0.3,1.3l-2.3,0.3c-0.1-0.6-0.4-1.1-0.7-1.4c-0.3-0.3-0.9-0.4-1.6-0.4c-0.4,0-0.8,0-1,0.1
		c-0.3,0.1-0.5,0.2-0.6,0.3c-0.2,0.1-0.3,0.2-0.3,0.4c-0.1,0.2-0.1,0.3-0.1,0.5c0,0.4,0.1,0.8,0.4,1c0.2,0.2,0.7,0.4,1.3,0.5
		l1.6,0.3c1.3,0.3,2.2,0.7,2.8,1.2c0.6,0.6,0.9,1.4,0.9,2.4c0,0.5-0.1,1-0.3,1.4c-0.2,0.4-0.5,0.8-0.9,1.1c-0.4,0.3-0.9,0.6-1.4,0.8
		c-0.6,0.2-1.2,0.3-2,0.3c-1.6,0-2.8-0.3-3.7-1c-0.8-0.7-1.3-1.7-1.4-3.1H318.9z"/>
	<path class="st0" d="M327.9,2.6h2.4v11.7h-2.4V2.6z"/>
	<path class="st0" d="M332.9,2.6h2.4v9.6h5.5l-0.3,2.1h-7.7V2.6z"/>
	<path class="st0" d="M339.6,2.6h2.7l2.8,8.3l2.9-8.3h2.6l-4.4,11.7H344L339.6,2.6z"/>
	<path class="st0" d="M352.3,2.6h8v2.1h-5.5v2.6h5.2v2.1h-5.2v2.9h5.9l-0.2,2.1h-8.1V2.6z"/>
	<path class="st0" d="M364.3,10.5c0.1,0.7,0.3,1.2,0.7,1.6c0.4,0.3,1,0.5,1.8,0.5c0.4,0,0.7,0,1-0.1c0.3-0.1,0.5-0.2,0.6-0.3
		c0.2-0.1,0.3-0.3,0.4-0.5c0.1-0.2,0.1-0.4,0.1-0.6c0-0.3-0.1-0.6-0.3-0.9c-0.2-0.3-0.7-0.5-1.3-0.6l-1.5-0.3
		c-0.6-0.1-1.1-0.3-1.6-0.4c-0.5-0.2-0.8-0.4-1.2-0.7c-0.3-0.3-0.6-0.6-0.7-1c-0.2-0.4-0.2-0.9-0.2-1.4c0-0.6,0.1-1.1,0.3-1.5
		c0.2-0.4,0.5-0.8,0.9-1.1c0.4-0.3,0.9-0.5,1.4-0.6c0.6-0.1,1.2-0.2,1.8-0.2c0.9,0,1.6,0.1,2.1,0.3c0.6,0.2,1,0.5,1.4,0.8
		c0.3,0.3,0.6,0.7,0.8,1.1c0.2,0.4,0.3,0.9,0.3,1.3l-2.3,0.3c-0.1-0.6-0.4-1.1-0.7-1.4c-0.3-0.3-0.9-0.4-1.6-0.4c-0.4,0-0.8,0-1,0.1
		c-0.3,0.1-0.5,0.2-0.6,0.3c-0.2,0.1-0.3,0.2-0.3,0.4c-0.1,0.2-0.1,0.3-0.1,0.5c0,0.4,0.1,0.8,0.4,1c0.2,0.2,0.7,0.4,1.3,0.5
		l1.6,0.3c1.3,0.3,2.2,0.7,2.8,1.2c0.6,0.6,0.9,1.4,0.9,2.4c0,0.5-0.1,1-0.3,1.4c-0.2,0.4-0.5,0.8-0.9,1.1c-0.4,0.3-0.9,0.6-1.4,0.8
		c-0.6,0.2-1.2,0.3-2,0.3c-1.6,0-2.8-0.3-3.7-1c-0.8-0.7-1.3-1.7-1.4-3.1H364.3z"/>
	<path class="st0" d="M375.8,4.7h-3.5V2.6h9.5v2.1h-3.5v9.6h-2.5V4.7z"/>
	<path class="st0" d="M383.4,2.6h4.2c0.9,0,1.7,0.1,2.3,0.3c0.6,0.2,1.1,0.5,1.4,0.8c0.3,0.3,0.6,0.7,0.7,1.1
		c0.1,0.4,0.2,0.8,0.2,1.2c0,0.8-0.1,1.4-0.4,1.9c-0.3,0.5-0.7,0.9-1.4,1.3l2.4,5h-2.6l-2-4.4h-2.3v4.4h-2.4V2.6z M387.8,7.9
		c0.4,0,0.7,0,1-0.1c0.3-0.1,0.5-0.2,0.6-0.3c0.1-0.1,0.2-0.3,0.3-0.5c0.1-0.2,0.1-0.4,0.1-0.7c0-0.2,0-0.4-0.1-0.6
		c-0.1-0.2-0.2-0.4-0.3-0.5c-0.2-0.1-0.4-0.3-0.7-0.3c-0.3-0.1-0.6-0.1-1.1-0.1h-1.7v3.3H387.8z"/>
	<path class="st0" d="M394.3,2.6h8v2.1h-5.5v2.6h5.2v2.1h-5.2v2.9h5.9l-0.2,2.1h-8.1V2.6z"/>
	<path class="st0" d="M238.6,20h1.6l4.5,11.7h-1.6l-1.2-3.3h-5l-1.2,3.3H234L238.6,20z M241.4,27.1l-2.1-5.4l-2,5.4H241.4z"/>
	<path class="st0" d="M246.4,20h3.8c0.9,0,1.6,0.1,2.2,0.3c0.6,0.2,1,0.5,1.3,0.8c0.3,0.3,0.5,0.7,0.7,1.1c0.1,0.4,0.2,0.8,0.2,1.2
		c0,0.7-0.2,1.4-0.5,1.9c-0.3,0.5-0.8,0.9-1.5,1.2l2.5,5.3h-1.7l-2.2-4.9c-0.1,0-0.3,0-0.5,0c-0.2,0-0.3,0-0.4,0h-2.3v4.9h-1.5V20z
		 M250.4,25.5c0.5,0,1-0.1,1.3-0.2c0.3-0.1,0.6-0.3,0.8-0.4c0.2-0.2,0.3-0.4,0.4-0.7c0.1-0.3,0.1-0.6,0.1-0.9c0-0.3,0-0.6-0.1-0.9
		c-0.1-0.3-0.2-0.5-0.5-0.6c-0.2-0.2-0.5-0.3-0.9-0.4c-0.4-0.1-0.8-0.1-1.4-0.1h-2.3v4.3H250.4z"/>
	<path class="st0" d="M264.5,31.3c-0.4,0.2-0.8,0.4-1.3,0.5c-0.5,0.1-1,0.2-1.5,0.2c-0.8,0-1.5-0.1-2.2-0.4
		c-0.7-0.3-1.2-0.7-1.7-1.2c-0.5-0.5-0.8-1.2-1.1-1.9c-0.3-0.8-0.4-1.6-0.4-2.6s0.1-1.9,0.4-2.6c0.3-0.8,0.6-1.4,1.1-1.9
		c0.5-0.5,1-0.9,1.7-1.2c0.7-0.3,1.4-0.4,2.2-0.4c0.8,0,1.5,0.1,2.2,0.4c0.7,0.3,1.2,0.7,1.7,1.2c0.5,0.5,0.8,1.2,1.1,1.9
		c0.3,0.8,0.4,1.6,0.4,2.6c0,1-0.1,1.9-0.4,2.7s-0.7,1.5-1.2,2l1.4,1.7l-1,0.8L264.5,31.3z M262.2,28.4l1-0.8l1.4,1.7
		c0.6-0.9,1-2,1-3.5c0-0.7-0.1-1.4-0.2-2c-0.2-0.6-0.4-1.1-0.7-1.5c-0.3-0.4-0.7-0.8-1.2-1c-0.5-0.2-1-0.3-1.6-0.3
		c-0.6,0-1.2,0.1-1.7,0.3c-0.5,0.2-0.9,0.6-1.2,1c-0.3,0.4-0.6,0.9-0.7,1.5c-0.2,0.6-0.2,1.3-0.2,2c0,0.7,0.1,1.4,0.2,2
		c0.2,0.6,0.4,1.1,0.7,1.5s0.7,0.7,1.2,1c0.5,0.2,1,0.3,1.7,0.3c0.7,0,1.4-0.2,1.9-0.5L262.2,28.4z"/>
	<path class="st0" d="M269.3,20h1.5V27c0,1.2,0.2,2.1,0.7,2.7c0.5,0.6,1.2,0.9,2.3,0.9c1.1,0,1.8-0.3,2.2-0.9
		c0.4-0.6,0.7-1.5,0.7-2.7V20h1.5V27c0,0.9-0.1,1.6-0.3,2.2c-0.2,0.6-0.5,1.1-0.9,1.5c-0.4,0.4-0.8,0.7-1.4,0.9
		c-0.6,0.2-1.2,0.3-1.9,0.3c-1.4,0-2.5-0.4-3.3-1.2c-0.8-0.8-1.2-2.1-1.2-3.8V20z"/>
	<path class="st0" d="M280.8,20h1.5v11.7h-1.5V20z"/>
	<path class="st0" d="M287.9,21.3h-3.9V20h9.3v1.3h-3.9v10.4h-1.5V21.3z"/>
	<path class="st0" d="M295.1,20h7.6v1.3h-6.1V25h5.7v1.3h-5.7v4h6.4l-0.2,1.3h-7.6V20z"/>
	<path class="st0" d="M314.6,27.8c-0.1,0.6-0.2,1.1-0.4,1.6c-0.2,0.5-0.5,0.9-0.9,1.3c-0.4,0.4-0.9,0.7-1.4,0.9
		c-0.6,0.2-1.2,0.3-2,0.3c-0.8,0-1.5-0.1-2.2-0.4c-0.6-0.3-1.2-0.7-1.6-1.2c-0.4-0.5-0.8-1.2-1-1.9c-0.2-0.8-0.4-1.6-0.4-2.6
		c0-1,0.1-1.9,0.4-2.6c0.3-0.8,0.6-1.4,1.1-1.9s1-0.9,1.7-1.2s1.3-0.4,2.1-0.4c0.7,0,1.3,0.1,1.9,0.3c0.5,0.2,1,0.4,1.3,0.8
		c0.4,0.3,0.7,0.7,0.9,1.2c0.2,0.5,0.4,1,0.5,1.6l-1.5,0.2c-0.1-0.4-0.2-0.8-0.4-1.2c-0.2-0.3-0.4-0.6-0.6-0.9
		c-0.2-0.2-0.5-0.4-0.9-0.6c-0.3-0.1-0.8-0.2-1.3-0.2c-0.6,0-1.1,0.1-1.6,0.4c-0.5,0.2-0.8,0.6-1.1,1c-0.3,0.4-0.5,0.9-0.7,1.5
		c-0.2,0.6-0.2,1.3-0.2,2c0,0.7,0.1,1.4,0.2,2c0.2,0.6,0.4,1.1,0.7,1.5s0.7,0.8,1.1,1c0.5,0.2,1,0.3,1.6,0.3c0.5,0,1-0.1,1.4-0.2
		c0.4-0.1,0.7-0.3,0.9-0.6c0.2-0.3,0.4-0.6,0.6-0.9c0.1-0.4,0.2-0.7,0.3-1.1H314.6z"/>
	<path class="st0" d="M319.2,21.3h-3.9V20h9.3v1.3h-3.9v10.4h-1.5V21.3z"/>
	<path class="st0" d="M328.2,20h1.6l4.5,11.7h-1.6l-1.2-3.3h-5l-1.2,3.3h-1.6L328.2,20z M331,27.1l-2.1-5.4l-2,5.4H331z"/>
</g>
</svg>
