<?xml version="1.0" encoding="utf-8"?>
<!-- Generator: Adobe Illustrator 22.0.1, SVG Export Plug-In . SVG Version: 6.00 Build 0)  -->
<svg version="1.1" id="Capa_1" xmlns="http://www.w3.org/2000/svg" xmlns:xlink="http://www.w3.org/1999/xlink" x="0px" y="0px"
	 viewBox="0 0 25.3 25.3" style="enable-background:new 0 0 25.3 25.3;" xml:space="preserve">
<style type="text/css">
	.st0{fill:#FFFFFF;}
</style>
<title>iconFB</title>
<path class="st0" d="M18.1-0.1H6.8C3,0,0,3,0,6.8v11.2c0,3.8,3,6.9,6.8,6.9h11.4c3.8,0,6.9-3.1,6.9-6.9c0,0,0,0,0,0V6.8
	C25.1,3,22-0.1,18.1-0.1C18.2-0.1,18.1-0.1,18.1-0.1z M22.8,18c0,2.6-2.1,4.7-4.7,4.7l0,0H6.8c-2.6,0-4.7-2.1-4.7-4.7l0,0V6.8
	c0-2.6,2.1-4.7,4.7-4.7h11.4c2.6,0,4.7,2.1,4.7,4.7l0,0V18H22.8z"/>
<path class="st0" d="M12.5,6c-3.6,0-6.4,2.9-6.4,6.5s2.9,6.4,6.5,6.4c3.6,0,6.4-2.9,6.4-6.5C19,8.9,16.1,6,12.5,6
	C12.5,6,12.5,6,12.5,6z M12.5,16.7c-2.3,0-4.2-1.9-4.2-4.2c0-2.3,1.9-4.2,4.2-4.2c2.3,0,4.2,1.9,4.2,4.2
	C16.7,14.8,14.8,16.7,12.5,16.7z"/>
</svg>
